<svg width="256" height="256" title="Apipost" viewBox="0 0 256 256" fill="none" xmlns="http://www.w3.org/2000/svg">
<rect width="256" height="256" rx="25" fill="url(#linearGradient)"/>
<path d="M124.863 51L131.137 51.1429L134.987 51.4286L139.977 52.1429L144.255 53L148.532 54.1429L153.523 55.7143L157.373 57.2857L160.795 58.8571L163.932 60.4286L167.354 62.4286L169.92 64.1429L172.344 65.8571L174.34 67.4286L176.764 69.4286L179.046 71.5714L180.471 72.8571L183.038 75.4286L184.036 76.5714L185.605 78.2857L186.888 79.8571L188.599 82L190.025 84L191.736 86.7143L193.589 89.8571L195.3 93.1429L196.584 95.8571L198.58 101L200.006 105.429L201.146 110.571L202.287 116.857L202.715 120.429L203 126.143V129L202.715 133.429L202.287 136.857L201.432 141.857L200.433 146.286L199.15 150.429L197.867 154L196.013 158.429L193.589 163.286L192.021 166L191.023 167.571L190.025 169L188.884 170.571L187.173 172.857L184.036 176.571L181.755 179L179.616 181.143L178.475 182.143L176.764 183.714L175.196 185L172.914 186.857L167.354 190.571L164.502 192.286L160.51 194.429L156.517 196.143L152.24 197.571L147.392 199L142.544 200.143L137.838 201L134.416 201.429L130.424 201.714H125.576L121.013 201.286L118.162 201.143L117.021 200.857L116.736 200.286V199.429L118.447 197L119.16 195.857L119.873 194.571L120.3 194.143L121.869 194.286L123.295 194.571L125.861 194.714H127.857L132.135 194.429L137.838 193.714L145.253 192.429L154.236 189.857L154.806 189.571V186.571L154.093 179.143L152.667 165.143L152.097 159L151.241 148.143L150.671 140.143L149.958 130.714L149.103 116.571L148.532 108.857L147.962 103.714L147.392 101.571L146.251 99.2857L145.11 97.7143L143.827 96.7143L141.831 95.7143L139.835 95.1429H137.125L134.844 95.8571L132.563 96.7143L117.163 104.429L115.025 105.571L112.03 107L109.321 108.429L105.899 110.143L102.62 111.714L89.7871 118.143L86.5076 119.714L83.3707 121.286L80.6616 122.714L77.6673 124.143L74.9582 125.571L69.9677 128.143L66.6882 129.714L63.9791 131.143L61.6977 132.286L60.1293 133.286V134.286L61.27 140.286L62.6958 145.429L63.8365 148.857L65.4049 152.857L66.8308 155.857L67.9715 158.143L69.5399 161.143L71.2509 163.857L73.6749 167.429L76.5266 171L77.8099 172.429L79.3783 174.429L79.8061 175.286V176.143L79.2357 177.143L78.5228 177.429L78.0951 178.857L76.9544 180.429L76.2414 180L75.9563 180.714H75.3859L73.6749 178.429L72.3916 177L71.3935 175.857L70.1103 174.571L68.827 173L67.4011 171.143L64.4068 166.571L63.1236 164.429L60.9848 160.429L59.4163 156.857L56.5646 149.143L55.5665 145.571L54.9962 142.571L54.4259 140.286L53.7129 136.571L53.2852 133L53 128.714V124.571L53.2852 120.143L53.7129 115.857L54.5684 110.714L55.424 106.857L56.2795 104L58.2757 98.5714L60.2719 94L62.2681 90.1429L63.9791 87.2857L65.2624 85.2857L66.9734 82.7143L68.2567 81L69.6825 79.1429L71.2509 77.4286L72.249 76.2857L73.8175 74.5714L74.8156 73.4286L76.5266 71.7143L77.6673 70.7143L79.5209 69L81.5171 67.4286L83.2281 66L85.7947 64.1429L88.789 62.1429L91.2129 60.7143L93.7795 59.2857L97.6293 57.4286L100.338 56.2857L104.759 54.7143L108.751 53.5714L113.314 52.4286L118.732 51.4286L121.441 51.1429L124.863 51Z" fill="#FEFDFD"/>
<path d="M120.015 129.429H121.298L123.295 129.857L126.146 131L127.572 131.857L129.283 133.429L130.567 134.857L131.707 136.714L132.42 138.429L132.848 140.571V143L132.42 145.143L131.707 146.857L130.424 148.857L129.854 149.714L128.57 151H128.285V151.286L126.574 152.429L124.863 153.286L122.867 153.857L121.726 154H119.16L117.163 153.571L114.882 152.429L113.171 151.286L111.745 150L110.462 148.143L109.321 145.571L108.894 143.857V140.714L109.464 138.143L110.605 135.571L111.745 133.857L113.314 132.286L115.31 131L118.304 129.714L120.015 129.429Z" fill="#FEFDFD"/>
<path d="M103.618 174.714L105.044 175.286L106.042 176.143L106.184 176.857L106.042 177.143H106.327V178.143L104.759 181.429L103.333 183.857L101.194 187.143L100.196 188.714L98.3422 191.571L96.7738 194.143L94.635 197.429L93.3517 199.429L92.3536 200.857L91.4981 202.429L89.5019 205.429L88.9316 205.857L88.076 206H86.5076L85.3669 205.429L84.654 204.571L84.7966 203.571L86.6502 200.286L87.7909 198.286L89.3593 195.857L91.3555 192.571L94.0646 188.429L95.6331 185.857L97.3441 183.286L99.3403 179.857L100.481 178.286L102.049 175.857L102.62 175.143L103.618 174.714Z" fill="#FEFDFD"/>
<path d="M112.743 183.143L114.169 183.286L115.88 184L116.451 184.429V186L115.31 188.286L113.314 192.143L111.745 195L110.605 197L109.606 198.429L108.038 201L106.897 202.857L106.184 204L105.614 205L104.616 205.571L103.76 205.857L102.762 205.714L101.622 205.143L101.194 204.571V203.286L102.192 201L103.903 197.714L105.044 195.857L106.327 193.429L107.183 192.143L109.036 188.714L110.319 186.429L111.603 184.429L112.743 183.143Z" fill="#FEFDFD"/>
<path d="M90.7852 171.143L91.7833 171.286L93.0665 171.714L93.4943 172.143L93.6369 172.571V174.143L92.3536 176.857L90.7852 179.143L89.6445 180.571L89.2167 181.286L87.9335 183L86.5076 184.857L85.2243 186.571L83.3707 188.857L82.0875 190.429L80.8042 191.571L80.3764 191.857L79.5209 191.714L78.5228 191L77.9525 189.571V188.571L78.9506 186.714L80.3764 184.714L81.6597 183L83.0856 180.714L84.5114 179L85.6521 177.429L87.0779 175.857L88.6464 173.429L90.7852 171.143Z" fill="#FEFDFD"/>
<linearGradient id="linearGradient" x1="23.8866" y1="2.8564e-06" x2="232.113" y2="256" gradientUnits="userSpaceOnUse">
<stop stop-color="#FEA43C"/>
<stop offset="1" stop-color="#FF7D10"/>
</linearGradient>
</svg>