<svg width="256" height="256" title="AutoHotkey" viewBox="0 0 256 256" fill="none" xmlns="http://www.w3.org/2000/svg">
<rect width="256" height="256" rx="25" fill="#448E3A"/>
<path d="M77.875 54.1913C87.2238 54.1913 94.75 52.0628 94.75 62.0056V182.543C94.75 192.485 87.2238 202.809 77.875 202.809C68.5262 202.809 61 204.937 61 194.994V74.4573C61 64.5145 68.5262 54.1913 77.875 54.1913Z" fill="#8CF287"/>
<path d="M179.125 54.1913C188.474 54.1913 196 52.0628 196 62.0056V182.543C196 192.485 188.474 202.809 179.125 202.809C169.776 202.809 162.25 204.937 162.25 194.994V74.4573C162.25 64.5145 169.776 54.1913 179.125 54.1913Z" fill="#8CF287"/>
<path d="M91.375 118.367L165.625 108.234V142.011L91.375 152.144V118.367Z" fill="#8CF287"/>
</svg>